<svg width="2397" height="1923" viewBox="0 0 2397 1923" fill="none" xmlns="http://www.w3.org/2000/svg">
<path d="M2397 647.095C2394.81 648.814 2392.54 650.639 2390.19 652.572C2371.13 668.267 2349.55 687.138 2341.14 694.611C2330.87 701.617 2306.95 717.032 2293.5 722.637C2280.04 728.242 2261.73 740.854 2254.26 746.459L2231.84 749.261C2228.1 745.992 2218.66 738.892 2210.82 736.65C2202.97 734.408 2192.6 734.781 2188.39 735.248C2186.06 732.913 2178.02 728.242 2164.57 728.242C2151.12 728.242 2140.28 738.518 2136.54 743.656C1891.77 716.565 1398.58 661.821 1384.01 659.579C1369.43 657.337 1306.93 614.738 1277.5 593.718C1247.14 569.896 1184.17 522.252 1175.2 522.252C1166.23 522.252 1163.06 525.055 1162.59 526.456C1155.58 522.719 1137.36 515.246 1120.55 515.246C1103.73 515.246 1078.04 490.957 1067.3 478.812C1063.56 472.74 1054.4 460.596 1047.68 460.596C1040.95 460.596 1036.47 467.135 1035.06 470.405C1018.25 483.483 979.571 512.163 959.391 522.252C939.211 532.342 901.468 558.219 885.118 569.896L826.151 603.382L826.202 601.603L776.72 548.197C777.251 545.007 778.218 543.382 778.724 542.532C778.964 542.129 779.1 541.9 779.037 541.761C778.955 541.579 778.528 541.552 777.541 541.491C776.687 541.437 775.413 541.358 773.578 541.129C768.119 540.446 764.064 536.355 761.621 533.89C760.051 532.307 759.147 531.394 758.964 532.49C744.95 552.576 695.902 458.502 690.297 442.808C684.691 427.113 663.671 409.177 653.861 402.17C650.124 390.96 641.249 367.699 635.643 364.336C630.038 360.972 615.557 344.25 609.017 336.31C604.346 328.369 591.64 305.762 578.187 278.857C564.734 251.952 559.502 217.2 558.568 203.187C548.596 199.199 531.527 168.246 517.967 143.655C512.471 133.689 507.552 124.768 503.914 119.11C493.824 103.415 467.011 76.1368 454.866 64.4594C444.589 49.9794 421.233 20.4588 410.022 18.2168C398.811 15.9747 370.784 43.44 358.171 57.4529C352.566 64.9265 339.393 75.3895 331.545 57.4529C323.698 39.5164 316.13 37.8349 313.328 39.2361L279.695 0L233.449 74.2684L191.408 126.116C183.467 132.656 165.623 148.537 157.775 159.747C149.927 170.957 133.018 186.839 125.544 193.378C113.865 203.187 87.4265 226.729 75.0942 242.423C62.7622 258.118 30.7175 276.988 16.2368 284.462L0 301.099V1922.57H788.393L788.405 1922.14H2397V647.095Z" fill="url(#paint0_linear_1445_7910)"/>
<defs>
<linearGradient id="paint0_linear_1445_7910" x1="1068.15" y1="127.971" x2="1091.02" y2="1302.33" gradientUnits="userSpaceOnUse">
<stop stop-color="#43188E" stop-opacity="0.5"/>
<stop offset="1" stop-color="#180A2F" stop-opacity="0.8"/>
</linearGradient>
</defs>
</svg>
