<svg width="86" height="72" viewBox="0 0 86 72" fill="none" xmlns="http://www.w3.org/2000/svg">
<g clip-path="url(#clip0_33_1808)">
<path d="M3.11419 1.80761L3.13477 13.9094L0.496794 13.541L0.476212 1.43924L3.11419 1.80761Z" fill="#F8FAFC" stroke="#F8FAFC" stroke-width="0.434606" stroke-linejoin="round"/>
<path d="M3.11429 1.80772L5.46068 0.538879L5.48126 12.6406L3.13487 13.9095L3.11429 1.80772Z" stroke="#F8FAFC" stroke-width="0.434606" stroke-linejoin="round"/>
<path d="M0.476379 1.43947L2.82277 0.170624L5.46074 0.538998L3.11435 1.80784L0.476379 1.43947Z" stroke="#F8FAFC" stroke-width="0.434606" stroke-linejoin="round"/>
<path d="M7.72136 26.4991L10.0677 25.2405C7.44764 26.6781 5.50187 29.0833 4.65115 31.936C3.51912 35.5038 3.84158 39.781 5.55678 43.932C8.93915 52.1488 17.1515 58.7727 29.5009 63.3023L27.1545 64.5712C14.8051 60.0416 6.60305 53.4177 3.22068 45.2009C1.50548 41.0328 1.18302 36.7726 2.31505 33.2049C3.16225 30.3508 5.10402 27.9423 7.72136 26.4991Z" stroke="#F8FAFC" stroke-width="0.434606" stroke-linejoin="round"/>
<path d="M8.54106 27.9964L10.8875 26.7276C11.3354 26.4854 11.801 26.2767 12.2802 26.1034C13.6598 25.6036 15.1421 25.4501 16.5956 25.6566C18.9592 25.9977 21.2541 27.2188 23.2677 29.0982L20.9248 30.3568C18.9111 28.4774 16.6162 27.2461 14.2527 26.9152C12.8017 26.7125 11.3228 26.8695 9.94752 27.3723C9.46362 27.5449 8.99347 27.7536 8.54106 27.9964Z" stroke="#F8FAFC" stroke-width="0.434606" stroke-linejoin="round"/>
<path d="M24.8696 20.2981L27.2126 19.0293C24.5883 20.4653 22.8285 22.9313 22.0944 26.2399L19.748 27.5087C20.4822 24.2172 22.2419 21.7171 24.8696 20.2981Z" stroke="#F8FAFC" stroke-width="0.434606" stroke-linejoin="round"/>
<path d="M25.8407 19.8377C22.6745 21.1474 20.5819 23.8079 19.7484 27.5087C18.1153 26.358 16.2369 25.5981 14.2597 25.2882C12.5892 25.0478 10.8847 25.2236 9.29938 25.7998C5.91015 27.0175 3.42997 29.6473 2.3048 33.2048C1.17963 36.7624 1.49866 41.0498 3.21043 45.2009C6.5928 53.4176 14.8086 60.0415 27.1443 64.5712L0.253426 60.8192L0.171097 16.2494L25.8407 19.8377Z" fill="#F8FAFC" stroke="#F8FAFC" stroke-width="0.434606" stroke-linejoin="round"/>
<path d="M0.171234 16.2494L2.51762 14.9806L28.1838 18.5688L25.8409 19.8376L0.171234 16.2494Z" stroke="#F8FAFC" stroke-width="0.434606" stroke-linejoin="round"/>
<path opacity="0.85" d="M31.9261 20.7244C32.6526 20.8261 33.3673 20.9986 34.0598 21.2395L34.1422 65.1032C33.9431 65.0746 33.746 65.0336 33.5521 64.9805C19.2714 60.9556 8.48623 54.1646 4.59616 44.7063C1.37159 36.8374 3.81403 29.5825 9.94758 27.3722C11.3269 26.8713 12.8095 26.7177 14.263 26.9254C16.6128 27.2563 18.9078 28.4876 20.9248 30.3567C21.1924 26.0522 23.1272 22.6004 26.9315 21.2293C28.5289 20.6536 30.2449 20.4802 31.9261 20.7244Z" fill="#F8FAFC" stroke="#F8FAFC" stroke-width="0.434606" stroke-linejoin="round"/>
<path opacity="0.85" d="M34.06 21.2395L36.4064 19.9706L36.4887 63.8344L34.1424 65.1032L34.06 21.2395Z" stroke="#F8FAFC" stroke-width="0.434606" stroke-linejoin="round"/>
<path d="M34.2728 19.4421C32.5884 19.2007 30.8702 19.3776 29.2713 19.9571C28.85 20.1086 28.4407 20.291 28.0466 20.5029L25.7003 21.7717C26.0955 21.5598 26.506 21.3774 26.9283 21.226C28.526 20.6463 30.2432 20.4694 31.9264 20.7109C32.6529 20.8126 33.3676 20.9851 34.0601 21.226L36.4065 19.9571C35.7139 19.7167 34.9992 19.5442 34.2728 19.4421Z" stroke="#F8FAFC" stroke-width="0.434606" stroke-linejoin="round"/>
<path d="M11.0356 7.4185L13.382 6.14966L13.3957 13.7491L11.0493 15.0179L11.0356 7.4185Z" stroke="#F8FAFC" stroke-width="0.434606" stroke-linejoin="round"/>
<path d="M8.43167 2.55131L10.7781 1.28247L13.1107 1.6065L10.7643 2.87876L8.43167 2.55131Z" stroke="#F8FAFC" stroke-width="0.434606" stroke-linejoin="round"/>
<path d="M10.7646 2.87861L13.111 1.60635L18.0028 9.79244L15.6598 11.0613L10.7646 2.87861Z" stroke="#F8FAFC" stroke-width="0.434606" stroke-linejoin="round"/>
<path d="M15.6598 11.0612L18.0028 9.79236L18.0714 9.80259L15.725 11.0714L15.6598 11.0612Z" stroke="#F8FAFC" stroke-width="0.434606" stroke-linejoin="round"/>
<path d="M18.3045 3.92917L18.3285 16.0343L16.0404 15.7137L11.1041 7.42872L11.0355 7.41849L11.0492 15.0179L8.45239 14.6529L8.43181 2.55118L10.7645 2.87862L15.6597 11.0613L15.7248 11.0715L15.7111 3.56762L18.3045 3.92917Z" fill="#F8FAFC" stroke="#F8FAFC" stroke-width="0.434606" stroke-linejoin="round"/>
<path d="M18.3046 3.92915L20.651 2.66031L20.6716 14.7655L18.3286 16.0343L18.3046 3.92915Z" stroke="#F8FAFC" stroke-width="0.434606" stroke-linejoin="round"/>
<path d="M15.7112 3.56764L18.0576 2.2988L20.651 2.66035L18.3046 3.92919L15.7112 3.56764Z" stroke="#F8FAFC" stroke-width="0.434606" stroke-linejoin="round"/>
<path d="M28.6846 7.55165L31.031 6.28281L31.0481 16.2153L28.7017 17.4841L28.6846 7.55165Z" stroke="#F8FAFC" stroke-width="0.434606" stroke-linejoin="round"/>
<path d="M31.8234 5.81884L31.8269 7.99156L28.6846 7.55156L28.7018 17.484L26.0604 17.1156L26.0432 7.18319L22.901 6.74319L22.8976 4.57047L31.8234 5.81884Z" fill="#F8FAFC" stroke="#F8FAFC" stroke-width="0.434606" stroke-linejoin="round"/>
<path d="M31.8236 5.81907L34.17 4.55023L34.1734 6.72295L31.827 7.9918L31.8236 5.81907Z" stroke="#F8FAFC" stroke-width="0.434606" stroke-linejoin="round"/>
<path d="M22.8978 4.57042L25.2408 3.30499L34.1701 4.54996L31.8237 5.8188L22.8978 4.57042Z" stroke="#F8FAFC" stroke-width="0.434606" stroke-linejoin="round"/>
<path d="M37.9054 16.2458L40.2518 14.977L39.5314 17.3987L37.185 18.6675L37.9054 16.2458Z" stroke="#F8FAFC" stroke-width="0.434606" stroke-linejoin="round"/>
<path d="M38.4306 14.2915L40.777 13.0226L43.7648 13.4388L41.4219 14.7076L38.4306 14.2915Z" stroke="#F8FAFC" stroke-width="0.434606" stroke-linejoin="round"/>
<path d="M39.8713 9.44444L42.2177 8.1756L40.777 13.0224L38.4306 14.2913L39.8713 9.44444Z" stroke="#F8FAFC" stroke-width="0.434606" stroke-linejoin="round"/>
<path d="M41.6036 7.18654L45.4971 19.8306L42.6842 19.4418L41.9501 16.8154L37.9057 16.2458L37.1853 18.6675L34.3724 18.2753L38.2179 6.71243L41.6036 7.18654ZM38.4202 14.2914L41.4081 14.7075L39.9262 9.45477H39.861L38.4202 14.2914Z" fill="#F8FAFC" stroke="#F8FAFC" stroke-width="0.434606" stroke-linejoin="round"/>
<path d="M41.6036 7.1866L43.95 5.91776L47.8435 18.5618L45.4971 19.8307L41.6036 7.1866Z" stroke="#F8FAFC" stroke-width="0.434606" stroke-linejoin="round"/>
<path d="M38.2177 6.71248L40.5641 5.44363L43.9499 5.91774L41.6035 7.18659L38.2177 6.71248Z" stroke="#F8FAFC" stroke-width="0.434606" stroke-linejoin="round"/>
<path d="M52.5365 13.2206L54.8829 11.9518L54.8966 19.5478L52.5537 20.8166L52.5365 13.2206Z" stroke="#F8FAFC" stroke-width="0.434606" stroke-linejoin="round"/>
<path d="M49.9361 8.34984L52.2825 7.08099L54.6117 7.40844L52.2653 8.67728L49.9361 8.34984Z" stroke="#F8FAFC" stroke-width="0.434606" stroke-linejoin="round"/>
<path d="M52.2655 8.67732L54.6119 7.40848L59.5071 15.5911L57.1641 16.86L52.2655 8.67732Z" stroke="#F8FAFC" stroke-width="0.434606" stroke-linejoin="round"/>
<path d="M57.1639 16.8599L59.5069 15.591L59.5755 15.6013L57.2291 16.8701L57.1639 16.8599Z" stroke="#F8FAFC" stroke-width="0.434606" stroke-linejoin="round"/>
<path d="M59.8086 9.73122L59.8292 21.833L57.5446 21.5124L52.6048 13.2274L52.5362 13.2205L52.5533 20.8165L49.9565 20.455L49.9359 8.34982L52.2652 8.67727L57.1638 16.8599L57.229 16.8702L57.2152 9.36626L59.8086 9.73122Z" fill="#F8FAFC" stroke="#F8FAFC" stroke-width="0.434606" stroke-linejoin="round"/>
<path d="M59.8087 9.73128L62.1551 8.46243L62.1757 20.5642L59.8293 21.833L59.8087 9.73128Z" stroke="#F8FAFC" stroke-width="0.434606" stroke-linejoin="round"/>
<path d="M57.2156 9.36635L59.562 8.10092L62.1554 8.46247L59.809 9.73132L57.2156 9.36635Z" stroke="#F8FAFC" stroke-width="0.434606" stroke-linejoin="round"/>
<path d="M67.7639 10.8432L67.7879 22.945L65.1499 22.5766L65.1259 10.4749L67.7639 10.8432Z" fill="#F8FAFC" stroke="#F8FAFC" stroke-width="0.434606" stroke-linejoin="round"/>
<path d="M67.7639 10.8433L70.1103 9.57449L70.1309 21.6763L67.788 22.9451L67.7639 10.8433Z" stroke="#F8FAFC" stroke-width="0.434606" stroke-linejoin="round"/>
<path d="M65.1257 10.4748L67.4721 9.20596L70.1101 9.57434L67.7637 10.8432L65.1257 10.4748Z" stroke="#F8FAFC" stroke-width="0.434606" stroke-linejoin="round"/>
<path d="M55.1674 32.0721L57.5138 30.8033L57.5206 35.6399L55.1742 36.9087L55.1674 32.0721Z" stroke="#F8FAFC" stroke-width="0.434606" stroke-linejoin="round"/>
<path d="M55.157 26.9729L57.5034 25.704L57.5068 28.6579L55.1638 29.9233L55.157 26.9729Z" stroke="#F8FAFC" stroke-width="0.434606" stroke-linejoin="round"/>
<path d="M58.9477 32.2699L61.2941 31.001L64.0521 36.5505L61.7057 37.8194L58.9477 32.2699Z" stroke="#F8FAFC" stroke-width="0.434606" stroke-linejoin="round"/>
<path d="M59.4416 28.9274L57.5069 28.6546L55.1639 29.9234L57.0953 30.1963C57.4695 30.269 57.8572 30.2225 58.2033 30.0633L60.5497 28.7944C60.2036 28.9536 59.8159 29.0002 59.4416 28.9274Z" stroke="#F8FAFC" stroke-width="0.434606" stroke-linejoin="round"/>
<path d="M59.9594 23.8759L54.8618 23.163L52.5154 24.4318L57.6301 25.1481C59.8736 25.4585 61.2629 27.0207 61.2698 29.2855C61.2698 30.5714 60.8341 31.506 59.98 31.9699L62.3092 30.6976C63.1599 30.2337 63.599 29.2991 63.5956 28.0132C63.5922 25.7518 62.2028 24.1897 59.9594 23.8759Z" stroke="#F8FAFC" stroke-width="0.434606" stroke-linejoin="round"/>
<path d="M58.9478 32.2699L61.6921 37.8193L58.8758 37.4271L56.4745 32.2562L55.1675 32.0618V36.8984L52.5296 36.53L52.509 24.4249L57.6305 25.148C59.874 25.4584 61.2633 27.0205 61.2702 29.2854C61.2565 31.0113 60.4675 32.1061 58.9478 32.2699ZM57.0954 30.1961C58.152 30.3427 58.766 29.9061 58.766 28.9409C58.766 27.9756 58.1451 27.3923 57.092 27.2354L55.1572 26.966V29.9164L57.0885 30.1892" fill="#F8FAFC"/>
<path d="M57.0954 30.1961C58.152 30.3427 58.766 29.9061 58.766 28.9409C58.766 27.9756 58.1451 27.3923 57.092 27.2354L55.1572 26.966V29.9164L57.0885 30.1892M58.9478 32.2699L61.6921 37.8193L58.8758 37.4271L56.4745 32.2562L55.1675 32.0618V36.8984L52.5296 36.53L52.509 24.4249L57.6306 25.148C59.874 25.4584 61.2633 27.0205 61.2702 29.2854C61.2565 31.0113 60.4675 32.1061 58.9478 32.2699Z" stroke="#F8FAFC" stroke-width="0.434606" stroke-linejoin="round"/>
<path d="M63.589 34.405L65.9354 33.1361L68.4841 33.4909L66.1377 34.7597L63.589 34.405Z" stroke="#F8FAFC" stroke-width="0.434606" stroke-linejoin="round"/>
<path d="M71.9728 35.2338L69.6368 36.4959C69.1991 36.6915 68.7106 36.7452 68.2406 36.6494C67.0296 36.4822 66.2818 35.7148 66.148 34.7529L68.4944 33.4841C68.6282 34.4459 69.376 35.2134 70.587 35.3805C71.053 35.4763 71.5375 35.4251 71.9728 35.2338Z" stroke="#F8FAFC" stroke-width="0.434606" stroke-linejoin="round"/>
<path d="M71.6951 30.5474L70.5528 30.1483C69.2321 29.7049 68.7038 29.2308 68.7038 28.4975C68.6925 28.3095 68.7356 28.1222 68.828 27.9578C68.9204 27.7933 69.0582 27.6587 69.2252 27.5697L66.8925 28.8386C66.7261 28.9282 66.5888 29.063 66.4964 29.2272C66.4041 29.3915 66.3607 29.5784 66.3711 29.7663C66.3711 30.4997 66.8994 30.9738 68.2201 31.4172L69.3624 31.8163C71.7637 32.6451 72.882 33.7912 72.8854 35.6808C72.8854 36.994 72.3503 37.9524 71.3761 38.4777L73.7225 37.2123C74.6967 36.6836 75.2353 35.7251 75.2318 34.4119C75.2284 32.5223 74.0964 31.3797 71.6951 30.5474Z" stroke="#F8FAFC" stroke-width="0.434606" stroke-linejoin="round"/>
<path d="M68.0999 26.4714C70.9815 26.8739 72.5594 28.7226 72.6143 30.9704L70.0655 30.6293C70.0293 30.1345 69.8159 29.6691 69.4641 29.3174C69.1123 28.9657 68.6453 28.751 68.148 28.7124C67.0262 28.5555 66.3676 28.9818 66.371 29.7834C66.371 30.5167 66.8993 30.9908 68.22 31.4342L69.3623 31.8333C71.7636 32.6621 72.8819 33.8082 72.8853 35.6978C72.8853 38.0854 71.1118 39.2929 68.1891 38.887C65.4208 38.4981 63.637 36.7859 63.589 34.4222L66.1377 34.7632C66.2715 35.7251 67.0194 36.4925 68.2303 36.6597C69.4412 36.8268 70.1616 36.4107 70.1616 35.5614C70.1616 34.8076 69.6539 34.4051 68.2474 33.9037L67.1017 33.508C64.8582 32.6997 63.6919 31.4035 63.6713 29.5855C63.685 27.2866 65.5957 26.1201 68.0999 26.4714Z" fill="#F8FAFC" stroke="#F8FAFC" stroke-width="0.434606" stroke-linejoin="round"/>
<path d="M70.4466 25.2026C69.4719 25.0304 68.4674 25.1713 67.5787 25.6051L65.2324 26.8739C66.1242 26.4385 67.1325 26.2975 68.1105 26.4714C70.992 26.8739 72.57 28.7226 72.6249 30.9704L74.9713 29.7015C74.9129 27.4538 73.3247 25.6051 70.4466 25.2026Z" stroke="#F8FAFC" stroke-width="0.434606" stroke-linejoin="round"/>
<path d="M75.8938 21.553L78.2401 20.2841L77.5198 22.7092L75.1734 23.9781L75.8938 21.553Z" stroke="#F8FAFC" stroke-width="0.434606" stroke-linejoin="round"/>
<path d="M76.4186 19.5986L78.7616 18.3298L81.7529 18.7493L79.4065 20.0182L76.4186 19.5986Z" stroke="#F8FAFC" stroke-width="0.434606" stroke-linejoin="round"/>
<path d="M77.8594 14.7518L80.2058 13.483L78.7616 18.3298L76.4186 19.5987L77.8594 14.7518Z" stroke="#F8FAFC" stroke-width="0.434606" stroke-linejoin="round"/>
<path d="M79.5849 12.4937L83.4819 25.1378L80.6689 24.7455L79.928 22.1192L75.8835 21.553L75.1632 23.9781L72.3468 23.5824L76.1957 12.023L79.5849 12.4937ZM76.4118 19.5985L79.3997 20.0147L77.9178 14.7619H77.8526L76.4118 19.6088" fill="#F8FAFC"/>
<path d="M76.4118 19.5985L79.3997 20.0147L77.9178 14.7619H77.8526L76.4118 19.6088M79.5849 12.4937L83.4819 25.1378L80.6689 24.7455L79.928 22.1192L75.8835 21.553L75.1632 23.9781L72.3468 23.5824L76.1957 12.023L79.5849 12.4937Z" stroke="#F8FAFC" stroke-width="0.434606" stroke-linejoin="round"/>
<path d="M79.5917 12.4937L81.9347 11.2249L85.8282 23.869L83.4818 25.1378L79.5917 12.4937Z" stroke="#F8FAFC" stroke-width="0.434606" stroke-linejoin="round"/>
<path d="M76.2061 12.0196L78.5524 10.7542L81.9348 11.2249L79.5919 12.4938L76.2061 12.0196Z" stroke="#F8FAFC" stroke-width="0.434606" stroke-linejoin="round"/>
<path d="M39.4082 29.7288L41.7512 28.46L41.7615 33.4364L39.4151 34.7053L39.4082 29.7288Z" stroke="#F8FAFC" stroke-width="0.434606" stroke-linejoin="round"/>
<path d="M39.3976 24.7694L41.7439 23.5005L41.7474 26.3111L39.401 27.5799L39.3976 24.7694Z" stroke="#F8FAFC" stroke-width="0.434606" stroke-linejoin="round"/>
<path d="M39.4015 27.5801L41.7479 26.3113L46.3858 26.9593L44.0428 28.2282L39.4015 27.5801Z" stroke="#F8FAFC" stroke-width="0.434606" stroke-linejoin="round"/>
<path d="M44.0426 28.2281L46.3856 26.9593L46.3924 29.1081L44.046 30.3769L44.0426 28.2281Z" stroke="#F8FAFC" stroke-width="0.434606" stroke-linejoin="round"/>
<path d="M44.9345 23.3744L44.9379 25.5437L39.3979 24.7694L39.4013 27.58L44.0426 28.228L44.046 30.3769L39.4081 29.7288L39.415 34.7053L36.7736 34.3369L36.753 22.2317L44.9345 23.3744Z" fill="#F8FAFC" stroke="#F8FAFC" stroke-width="0.434606" stroke-linejoin="round"/>
<path d="M44.9345 23.3744L47.2774 22.1055L47.2843 24.2748L44.9379 25.5437L44.9345 23.3744Z" stroke="#F8FAFC" stroke-width="0.434606" stroke-linejoin="round"/>
<path d="M36.7529 22.2319L39.0993 20.9631L47.2773 22.1057L44.9344 23.3746L36.7529 22.2319Z" stroke="#F8FAFC" stroke-width="0.434606" stroke-linejoin="round"/>
<path d="M49.9428 24.0737L49.9668 36.1789L47.3289 35.8105L47.3048 23.7053L49.9428 24.0737Z" fill="#F8FAFC" stroke="#F8FAFC" stroke-width="0.434606" stroke-linejoin="round"/>
<path d="M49.9429 24.0738L52.2893 22.805L52.3099 34.9101L49.9669 36.179L49.9429 24.0738Z" stroke="#F8FAFC" stroke-width="0.434606" stroke-linejoin="round"/>
<path d="M47.3049 23.7054L49.6513 22.4366L52.2893 22.805L49.9429 24.0738L47.3049 23.7054Z" stroke="#F8FAFC" stroke-width="0.434606" stroke-linejoin="round"/>
<path d="M80.2164 30.4761L82.5628 29.2072L82.5833 39.1431L80.237 40.4085L80.2164 30.4761Z" stroke="#F8FAFC" stroke-width="0.434606" stroke-linejoin="round"/>
<path d="M83.3584 28.7433L83.3619 30.916L80.2162 30.476L80.2368 40.4084L77.5988 40.0401L77.5782 30.1076L74.436 29.6676L74.4326 27.4949L83.3584 28.7433Z" fill="#F8FAFC" stroke="#F8FAFC" stroke-width="0.434606" stroke-linejoin="round"/>
<path d="M83.3586 28.7432L85.7016 27.4744L85.7084 29.6471L83.362 30.916L83.3586 28.7432Z" stroke="#F8FAFC" stroke-width="0.434606" stroke-linejoin="round"/>
<path d="M74.4323 27.4949L76.7787 26.2294L85.7011 27.4744L83.3582 28.7432L74.4323 27.4949Z" stroke="#F8FAFC" stroke-width="0.434606" stroke-linejoin="round"/>
<path d="M42.9484 47.1792L41.7204 47.0086L39.374 48.2774L40.6055 48.448C41.1974 48.5554 41.8084 48.4705 42.3481 48.2058L44.6945 46.937C44.1541 47.2033 43.5415 47.2883 42.9484 47.1792Z" stroke="#F8FAFC" stroke-width="0.434606" stroke-linejoin="round"/>
<path d="M39.3566 40.4905L41.703 39.2216L41.7167 47.0087L39.3737 48.2775L39.3566 40.4905Z" stroke="#F8FAFC" stroke-width="0.434606" stroke-linejoin="round"/>
<path d="M43.305 37.2774L39.0411 36.6805L36.705 37.9493L40.9586 38.5428C44.389 39.0203 46.5708 41.4488 46.5776 45.2929C46.5776 47.718 45.7338 49.3859 44.2655 50.1773L46.6085 48.9084C48.0801 48.1137 48.9275 46.4492 48.924 44.0241C48.9172 40.1834 46.7354 37.7549 43.305 37.2774Z" stroke="#F8FAFC" stroke-width="0.434606" stroke-linejoin="round"/>
<path d="M40.9588 38.5429C44.3892 39.0204 46.5709 41.4489 46.5778 45.293C46.5846 49.137 44.3926 51.1222 40.9588 50.6412L36.7051 50.0512V37.9494L40.9588 38.5429ZM40.6157 48.4344C42.6156 48.7141 43.758 47.4589 43.7545 44.911C43.7545 42.5063 42.5779 40.9271 40.6226 40.6542L39.3671 40.4769V48.2639L40.5986 48.4344" fill="#F8FAFC"/>
<path d="M40.6157 48.4344C42.6156 48.7141 43.758 47.4589 43.7545 44.911C43.7545 42.5063 42.5779 40.9271 40.6226 40.6542L39.3671 40.4769V48.2639L40.5986 48.4344M40.9588 38.5429C44.3892 39.0204 46.5709 41.4489 46.5778 45.293C46.5846 49.137 44.3926 51.1222 40.9588 50.6412L36.7051 50.0512V37.9494L40.9588 38.5429Z" stroke="#F8FAFC" stroke-width="0.434606" stroke-linejoin="round"/>
<path d="M53.2674 49.8393L55.6103 48.5705L54.8899 50.9956L52.547 52.2645L53.2674 49.8393Z" stroke="#F8FAFC" stroke-width="0.434606" stroke-linejoin="round"/>
<path d="M53.7885 47.885L56.1349 46.6161L59.1262 47.0357L56.7798 48.3045L53.7885 47.885Z" stroke="#F8FAFC" stroke-width="0.434606" stroke-linejoin="round"/>
<path d="M55.2293 43.0382L57.5757 41.7693L56.1349 46.6162L53.7885 47.885L55.2293 43.0382Z" stroke="#F8FAFC" stroke-width="0.434606" stroke-linejoin="round"/>
<path d="M56.9616 40.7801L60.8585 53.4242L58.0422 53.0319L57.3115 50.4056L53.2671 49.8393L52.5432 52.2645L49.7303 51.8688L53.5758 40.3094L56.9616 40.7801ZM53.7885 47.8849L56.7798 48.3045L55.2978 43.0483H55.2292L53.7885 47.8952" fill="#F8FAFC"/>
<path d="M53.7885 47.8849L56.7798 48.3045L55.2978 43.0483H55.2292L53.7885 47.8952M56.9616 40.7801L60.8585 53.4242L58.0422 53.0319L57.3115 50.4056L53.2671 49.8393L52.5432 52.2645L49.7303 51.8688L53.5758 40.3094L56.9616 40.7801Z" stroke="#F8FAFC" stroke-width="0.434606" stroke-linejoin="round"/>
<path d="M56.9616 40.7801L59.308 39.5113L63.2015 52.1554L60.8585 53.4242L56.9616 40.7801Z" stroke="#F8FAFC" stroke-width="0.434606" stroke-linejoin="round"/>
<path d="M53.5792 40.3094L55.9221 39.0406L59.3079 39.5113L56.9615 40.7801L53.5792 40.3094Z" stroke="#F8FAFC" stroke-width="0.434606" stroke-linejoin="round"/>
<path d="M68.0449 44.5016L70.3913 43.2327L70.4119 53.1652L68.0655 54.434L68.0449 44.5016Z" stroke="#F8FAFC" stroke-width="0.434606" stroke-linejoin="round"/>
<path d="M71.1872 42.7688L71.1906 44.9381L68.045 44.5015L68.0655 54.4339L65.4276 54.0621L65.407 44.1297L62.2648 43.6931L62.2613 41.5204L71.1872 42.7688Z" fill="#F8FAFC" stroke="#F8FAFC" stroke-width="0.434606" stroke-linejoin="round"/>
<path d="M71.1869 42.7688L73.5333 41.4999L73.5367 43.6692L71.1903 44.9381L71.1869 42.7688Z" stroke="#F8FAFC" stroke-width="0.434606" stroke-linejoin="round"/>
<path d="M62.2614 41.5204L64.6078 40.2515L73.5337 41.4999L71.1873 42.7687L62.2614 41.5204Z" stroke="#F8FAFC" stroke-width="0.434606" stroke-linejoin="round"/>
<path d="M77.3553 50.7537L79.7017 49.4848L79.7051 52.3159L77.3587 53.5847L77.3553 50.7537Z" stroke="#F8FAFC" stroke-width="0.434606" stroke-linejoin="round"/>
<path d="M77.3449 45.8012L79.6913 44.5323L79.6947 47.3395L77.3517 48.6083L77.3449 45.8012Z" stroke="#F8FAFC" stroke-width="0.434606" stroke-linejoin="round"/>
<path d="M77.3586 53.5847L79.7049 52.3158L85.2244 53.0867L82.8781 54.3555L77.3586 53.5847Z" stroke="#F8FAFC" stroke-width="0.434606" stroke-linejoin="round"/>
<path d="M82.8784 54.3556L85.2247 53.0868L85.2282 55.2356L82.8818 56.5045L82.8784 54.3556Z" stroke="#F8FAFC" stroke-width="0.434606" stroke-linejoin="round"/>
<path d="M77.3518 48.6082L79.6948 47.3394L84.3121 47.984L81.9657 49.2529L77.3518 48.6082Z" stroke="#F8FAFC" stroke-width="0.434606" stroke-linejoin="round"/>
<path d="M81.9656 49.253L84.312 47.9841L84.3155 50.1296L81.9725 51.3984L81.9656 49.253Z" stroke="#F8FAFC" stroke-width="0.434606" stroke-linejoin="round"/>
<path d="M74.6829 43.2566L77.0258 41.9878L85.2039 43.1304L82.8575 44.3993L74.6829 43.2566Z" stroke="#F8FAFC" stroke-width="0.434606" stroke-linejoin="round"/>
<path d="M82.8577 44.3993L85.2041 43.1304L85.2076 45.3032L82.8646 46.572L82.8577 44.3993Z" stroke="#F8FAFC" stroke-width="0.434606" stroke-linejoin="round"/>
<path d="M82.8576 44.3992L82.8645 46.572L77.345 45.8011L77.3518 48.6082L81.9657 49.2529L81.9726 51.3983L77.3553 50.7537L77.3587 53.5847L82.8782 54.3556L82.8816 56.5044L74.7036 55.3618L74.683 43.2566L82.8576 44.3992Z" fill="#F8FAFC" stroke="#F8FAFC" stroke-width="0.434606" stroke-linejoin="round"/>
<path d="M40.5675 64.0969L42.9139 62.8281V62.8758L40.5675 64.1447V64.0969Z" stroke="#F8FAFC" stroke-width="0.434606" stroke-linejoin="round"/>
<path d="M39.8607 56.3954L42.2036 55.1266C41.6616 55.4199 41.4729 56.0885 41.4729 56.832L39.1266 58.1009C39.1266 57.3573 39.3187 56.6888 39.8607 56.3954Z" stroke="#F8FAFC" stroke-width="0.434606" stroke-linejoin="round"/>
<path d="M45.0956 64.7758L47.442 63.5069L47.4455 65.6762L45.0991 66.9451L45.0956 64.7758Z" stroke="#F8FAFC" stroke-width="0.434606" stroke-linejoin="round"/>
<path d="M40.5675 64.1448L42.9139 62.876L47.442 63.507L45.0957 64.7758L40.5675 64.1448Z" stroke="#F8FAFC" stroke-width="0.434606" stroke-linejoin="round"/>
<path d="M43.2227 52.848C42.3635 52.6797 41.4727 52.7934 40.6842 53.172L38.3378 54.4409C39.1256 54.0564 40.0176 53.9367 40.8797 54.0998C43.6926 54.492 45.0373 56.2111 45.0408 58.2167C45.0408 59.8914 44.5605 60.3689 42.5194 62.2756L40.5675 64.08L42.9139 62.8111L44.8658 61.0068C46.924 59.1001 47.3872 58.6192 47.3837 56.9478C47.3803 54.9593 46.039 53.2402 43.2227 52.848Z" stroke="#F8FAFC" stroke-width="0.434606" stroke-linejoin="round"/>
<path d="M40.8798 54.1168C43.6927 54.5091 45.0374 56.2282 45.0408 58.2338C45.0408 59.9085 44.5606 60.386 42.5195 62.2927L40.5676 64.097V64.1414L45.0957 64.7758V66.9451L36.8628 65.7956V64.213C37.2058 63.8719 39.8026 61.5355 40.8798 60.5293C42.2828 59.2161 42.5675 58.7147 42.5675 58.0769C42.5675 57.1082 42.0564 56.426 40.8935 56.2623C39.5522 56.0747 39.1371 57.0058 39.1371 58.0939L36.7358 57.7528C36.7496 55.5426 37.8439 53.6905 40.8798 54.1168Z" fill="#F8FAFC" stroke="#F8FAFC" stroke-width="0.434606" stroke-linejoin="round"/>
<path d="M55.9496 64.7176C54.6529 64.5368 53.8365 63.268 53.833 60.5086C53.833 58.5234 54.2378 57.4593 54.9445 57.0772L52.5981 58.3461C51.8914 58.7281 51.4832 59.7923 51.4867 61.7774C51.4867 64.5368 52.3065 65.8057 53.6032 65.9864C53.929 66.0442 54.2649 65.9951 54.5603 65.8466L56.9067 64.5777C56.6113 64.7261 56.2754 64.7751 55.9496 64.7176Z" stroke="#F8FAFC" stroke-width="0.434606" stroke-linejoin="round"/>
<path d="M55.9152 54.6455C55.0223 54.4894 54.1025 54.6258 53.2944 55.0343L50.948 56.3031C51.7572 55.8942 52.6782 55.7577 53.5722 55.9143C56.4949 56.3236 58.4365 58.7658 58.4434 62.736C58.4434 65.3419 57.6167 67.0849 56.1999 67.8523L58.5463 66.5835C59.9596 65.816 60.7932 64.0731 60.7898 61.4672C60.7966 57.4969 58.855 55.0548 55.9152 54.6455Z" stroke="#F8FAFC" stroke-width="0.434606" stroke-linejoin="round"/>
<path d="M53.586 55.9142C56.5087 56.3235 58.4503 58.7657 58.4571 62.7359C58.464 66.7062 56.5533 68.6504 53.6065 68.2377C50.6598 67.8249 48.7457 65.3555 48.7388 61.3955C48.732 57.4354 50.6598 55.5049 53.586 55.9142ZM53.586 65.9865C54.8827 66.1707 55.6716 65.1235 55.6682 62.3642C55.6648 59.6048 54.8689 58.3837 53.5722 58.2029C52.2756 58.0221 51.4625 58.9942 51.4694 61.7775C51.4763 64.5607 52.2893 65.8057 53.586 65.9865Z" fill="#F8FAFC" stroke="#F8FAFC" stroke-width="0.434606" stroke-linejoin="round"/>
<path d="M65.7605 67.617L68.1069 66.3482V66.3959L65.7605 67.6648V67.617Z" stroke="#F8FAFC" stroke-width="0.434606" stroke-linejoin="round"/>
<path d="M65.0537 59.9153L67.3966 58.6464C66.8546 58.9398 66.6659 59.6083 66.6659 60.3519L64.3195 61.6207C64.3195 60.8771 64.5082 60.2086 65.0537 59.9153Z" stroke="#F8FAFC" stroke-width="0.434606" stroke-linejoin="round"/>
<path d="M70.2886 68.2959L72.635 67.027L72.6384 69.1997L70.292 70.4652L70.2886 68.2959Z" stroke="#F8FAFC" stroke-width="0.434606" stroke-linejoin="round"/>
<path d="M65.7605 67.6649L68.1069 66.3961L72.635 67.0271L70.2886 68.2959L65.7605 67.6649Z" stroke="#F8FAFC" stroke-width="0.434606" stroke-linejoin="round"/>
<path d="M68.4154 56.368C67.5533 56.2052 66.6613 56.3249 65.8734 56.7091L63.5305 57.9779C64.3183 57.5935 65.2103 57.4738 66.0724 57.6369C68.8853 58.0291 70.2301 59.7482 70.2335 61.7538C70.2335 63.4285 69.7532 63.906 67.7121 65.8127L65.7602 67.6171L68.1066 66.3482L70.0585 64.5439C72.1168 62.6372 72.5799 62.1563 72.5764 60.4849C72.573 58.4793 71.2317 56.7603 68.4154 56.368Z" stroke="#F8FAFC" stroke-width="0.434606" stroke-linejoin="round"/>
<path d="M66.0728 57.6437C68.8857 58.0359 70.2304 59.755 70.2338 61.7606C70.2338 63.4353 69.7536 63.9129 67.7125 65.8195L65.7606 67.6239V67.6716L70.2887 68.3026V70.472L62.0558 69.3225V67.7398C62.3988 67.3988 64.9956 65.0623 66.0728 64.0561C67.4758 62.7429 67.7605 62.2415 67.7605 61.6037C67.7605 60.635 67.2494 59.9528 66.0865 59.7891C64.7452 59.6015 64.3301 60.5361 64.3301 61.6207L61.9288 61.2797C61.9426 59.0626 63.0369 57.2105 66.0728 57.6437Z" fill="#F8FAFC" stroke="#F8FAFC" stroke-width="0.434606" stroke-linejoin="round"/>
<path d="M74.0453 66.911L76.3917 65.6422L78.8307 65.9833L76.4843 67.2521L74.0453 66.911Z" stroke="#F8FAFC" stroke-width="0.434606" stroke-linejoin="round"/>
<path d="M82.1134 68.115L79.767 69.3839C79.3606 69.5694 78.9054 69.622 78.4669 69.5339C77.1702 69.3532 76.5082 68.1048 76.4842 67.2521L78.8306 65.9832C78.8546 66.8359 79.5166 68.0843 80.8133 68.2651C81.2517 68.3531 81.707 68.3006 82.1134 68.115Z" stroke="#F8FAFC" stroke-width="0.434606" stroke-linejoin="round"/>
<path d="M77.4687 61.6207L79.8151 60.3519C79.2663 60.6486 78.9747 61.2933 78.9781 62.0573L76.6317 63.3261C76.6283 62.5621 76.9199 61.9175 77.4687 61.6207Z" stroke="#F8FAFC" stroke-width="0.434606" stroke-linejoin="round"/>
<path d="M80.8033 63.2853L79.8565 63.1557L77.5273 64.4245L78.4706 64.5541C78.8384 64.6146 79.216 64.5561 79.5478 64.387L81.8942 63.1182C81.5584 63.2902 81.1755 63.3488 80.8033 63.2853Z" stroke="#F8FAFC" stroke-width="0.434606" stroke-linejoin="round"/>
<path d="M80.8786 65.6965L83.2216 64.4277V64.4755L80.8786 65.7443V65.6965Z" stroke="#F8FAFC" stroke-width="0.434606" stroke-linejoin="round"/>
<path d="M83.9762 70.1071L81.6436 71.3759C82.0855 71.1392 82.4517 70.7838 82.7004 70.3502C82.9491 69.9166 83.0702 69.4222 83.05 68.9235C83.05 67.2692 82.165 66.1948 80.8923 65.7412L83.2215 64.4655C84.4977 64.9294 85.3793 65.9936 85.3827 67.6478C85.4042 68.1477 85.2837 68.6435 85.0349 69.0784C84.7862 69.5134 84.4193 69.8698 83.9762 70.1071Z" stroke="#F8FAFC" stroke-width="0.434606" stroke-linejoin="round"/>
<path d="M80.793 58.0972C79.9354 57.9355 79.0481 58.0552 78.2648 58.4383L75.9219 59.7072C76.7039 59.3238 77.5901 59.2041 78.4466 59.3661C81.3282 59.7686 82.7141 61.4706 82.7175 63.118C82.7175 64.3596 82.3024 65.0486 81.606 65.4238L83.9524 64.1549C84.6385 63.7798 85.0673 63.0908 85.0639 61.8492C85.0742 60.2018 83.6746 58.4997 80.793 58.0972Z" stroke="#F8FAFC" stroke-width="0.434606" stroke-linejoin="round"/>
<path d="M78.4465 59.3662C81.328 59.7687 82.7139 61.4707 82.7173 63.1181C82.7208 64.7656 81.9969 65.4239 80.8786 65.6933V65.7377C82.1513 66.2016 83.0329 67.2657 83.0364 68.92C83.0364 70.6254 81.7465 72.2047 78.4499 71.7442C75.5032 71.3315 74.0487 69.1247 74.0453 66.9076L76.4843 67.2487C76.5083 68.1014 77.1704 69.3498 78.4671 69.5306C79.6334 69.6943 80.4018 69.2816 80.3984 68.1014C80.3984 67.1123 79.5819 66.6211 78.4842 66.4676L77.5168 66.3312V64.4211L78.4602 64.5507C79.407 64.6837 80.196 64.1584 80.196 63.2614C80.196 62.2381 79.5099 61.6105 78.4808 61.4639C77.2939 61.3001 76.6352 62.1733 76.6387 63.3296L74.2648 62.9885C74.2751 60.5497 75.7433 58.9876 78.4465 59.3662Z" fill="#F8FAFC" stroke="#F8FAFC" stroke-width="0.434606" stroke-linejoin="round"/>
</g>
<defs>
<clipPath id="clip0_33_1808">
<rect width="86" height="72" fill="white"/>
</clipPath>
</defs>
</svg>
